<svg width="25" height="25" viewBox="0 0 25 25" fill="none" xmlns="http://www.w3.org/2000/svg">
<g clip-path="url(#clip0_67_5426)">
<g clip-path="url(#clip1_67_5426)">
<mask id="mask0_67_5426" style="mask-type:luminance" maskUnits="userSpaceOnUse" x="1" y="1" width="23" height="23">
<path d="M1.5957 1.40674H23.5957V23.4067H1.5957V1.40674Z" fill="white"/>
</mask>
<g mask="url(#mask0_67_5426)">
<path fill-rule="evenodd" clip-rule="evenodd" d="M12.6158 3.46643L12.616 3.46486C11.0693 3.46486 9.5203 3.41617 7.97678 3.48657C7.26075 3.51923 6.5062 3.67381 5.855 3.96519C4.31471 4.65433 3.70477 6.02576 3.67759 7.61221C3.62313 10.8024 3.63447 13.9945 3.68218 17.1848C3.69216 17.8481 3.87764 18.5534 4.1566 19.1592C4.87175 20.712 6.25814 21.3047 7.86189 21.3295C11.0197 21.3784 14.18 21.3947 17.3371 21.3276C19.8962 21.2734 21.4551 19.7303 21.5139 17.1765C21.5869 14.0034 21.5579 10.8268 21.5109 7.65269C21.501 6.98887 21.3208 6.28321 21.0445 5.6763C20.317 4.07901 18.8963 3.52578 17.2558 3.4764C15.7104 3.42996 14.1626 3.46643 12.6158 3.46643ZM23.5957 8.44674V16.3667C23.565 16.6719 23.5215 16.9765 23.5057 17.2824C23.3328 20.6302 21.3629 22.7915 18.0505 23.2514C17.5547 23.3203 17.0542 23.3559 16.5557 23.4067H8.6357C8.33152 23.3761 8.02792 23.3317 7.72285 23.317C4.38902 23.1554 2.20672 21.1695 1.74843 17.8648C1.6795 17.368 1.64577 16.8662 1.5957 16.3667V8.44674C1.62641 8.14157 1.6707 7.83709 1.68566 7.53115C1.84826 4.19673 3.83491 2.0155 7.14049 1.55898C7.63651 1.49044 8.13723 1.4566 8.6357 1.40674H16.5557C16.8599 1.43744 17.1635 1.48173 17.4685 1.4966C20.8041 1.65812 22.9892 3.6481 23.4398 6.94898C23.5077 7.44608 23.5445 7.94739 23.5957 8.44674Z" fill="white"/>
</g>
<path fill-rule="evenodd" clip-rule="evenodd" d="M16.5043 12.6236C16.5089 10.5696 14.8613 8.91014 12.8127 8.90549C10.7588 8.90094 9.09915 10.5487 9.09461 12.5972C9.09006 14.6513 10.7377 16.3107 12.7863 16.3153C14.8401 16.3198 16.4997 14.672 16.5043 12.6236ZM18.5031 12.6386C18.4955 15.8089 15.9483 18.3253 12.7585 18.3141C9.59209 18.3029 7.08064 15.7496 7.09577 12.5572C7.1107 9.41395 9.6532 6.9021 12.8154 6.90674C15.9893 6.91129 18.5108 9.45242 18.5031 12.6386Z" fill="white"/>
<path fill-rule="evenodd" clip-rule="evenodd" d="M19.5224 6.67773C19.5325 7.3556 18.9767 7.92407 18.3029 7.92516C17.656 7.92615 17.0909 7.37087 17.0783 6.72181C17.0654 6.05217 17.6302 5.48062 18.3045 5.48071C18.9632 5.48071 19.5128 6.02082 19.5224 6.67773Z" fill="white"/>
</g>
</g>
<defs>
<clipPath id="clip0_67_5426">
<rect width="24" height="24" fill="white" transform="translate(0.595703 0.406738)"/>
</clipPath>
<clipPath id="clip1_67_5426">
<rect width="24" height="24" fill="white" transform="translate(0.595703 0.406738)"/>
</clipPath>
</defs>
</svg>
